<svg width="108" height="12" viewBox="0 0 108 12" fill="none" xmlns="http://www.w3.org/2000/svg">
<rect opacity="0.15" x="4" y="4" width="100" height="4" rx="2" fill="black"/>
<path fill-rule="evenodd" clip-rule="evenodd" d="M56.4649 8C56.8052 7.41165 57 6.72857 57 6C57 5.27143 56.8052 4.58835 56.4649 4H102C103.105 4 104 4.89543 104 6C104 7.10457 103.105 8 102 8H56.4649ZM49.5351 8H22C20.8954 8 20 7.10457 20 6C20 4.89543 20.8954 4 22 4H49.5351C49.1948 4.58835 49 5.27143 49 6C49 6.72857 49.1948 7.41165 49.5351 8Z" fill="url(#paint0_linear_1529_300)"/>
<circle cx="53" cy="6" r="2" fill="white"/>
<defs>
<linearGradient id="paint0_linear_1529_300" x1="23" y1="4" x2="103.19" y2="4" gradientUnits="userSpaceOnUse">
<stop stop-color="#CDCF5C"/>
<stop offset="1" stop-color="#EF8835"/>
</linearGradient>
</defs>
</svg>
