<svg width="24" height="24" viewBox="0 0 24 24" fill="none" xmlns="http://www.w3.org/2000/svg">
<path opacity="0.3" d="M7.40234 18.6743C5.82031 18.6743 5 17.8613 5 16.2939V7.38037C5 5.81299 5.82031 5 7.40234 5H17.4805C19.0625 5 19.8828 5.81299 19.8828 7.38037V16.2939C19.8828 17.854 19.0625 18.6743 17.4805 18.6743H7.40234ZM7.38037 17.2388H17.4878C18.103 17.2388 18.4473 16.9165 18.4473 16.2793V9.51172C18.4473 8.86719 18.103 8.55225 17.4878 8.55225H7.38037C6.77246 8.55225 6.43555 8.86719 6.43555 9.51172V16.2793C6.43555 16.9165 6.77246 17.2388 7.38037 17.2388ZM11.0278 11.0938C10.7715 11.0938 10.6836 11.0132 10.6836 10.7495V10.3247C10.6836 10.061 10.7715 9.98047 11.0278 9.98047H11.46C11.7236 9.98047 11.8115 10.061 11.8115 10.3247V10.7495C11.8115 11.0132 11.7236 11.0938 11.46 11.0938H11.0278ZM13.4302 11.0938C13.1665 11.0938 13.0786 11.0132 13.0786 10.7495V10.3247C13.0786 10.061 13.1665 9.98047 13.4302 9.98047H13.855C14.1187 9.98047 14.2065 10.061 14.2065 10.3247V10.7495C14.2065 11.0132 14.1187 11.0938 13.855 11.0938H13.4302ZM15.8252 11.0938C15.5615 11.0938 15.4736 11.0132 15.4736 10.7495V10.3247C15.4736 10.061 15.5615 9.98047 15.8252 9.98047H16.25C16.5137 9.98047 16.6016 10.061 16.6016 10.3247V10.7495C16.6016 11.0132 16.5137 11.0938 16.25 11.0938H15.8252ZM8.63281 13.4521C8.37646 13.4521 8.28857 13.3716 8.28857 13.1079V12.6831C8.28857 12.4194 8.37646 12.3389 8.63281 12.3389H9.06494C9.32861 12.3389 9.4165 12.4194 9.4165 12.6831V13.1079C9.4165 13.3716 9.32861 13.4521 9.06494 13.4521H8.63281ZM11.0278 13.4521C10.7715 13.4521 10.6836 13.3716 10.6836 13.1079V12.6831C10.6836 12.4194 10.7715 12.3389 11.0278 12.3389H11.46C11.7236 12.3389 11.8115 12.4194 11.8115 12.6831V13.1079C11.8115 13.3716 11.7236 13.4521 11.46 13.4521H11.0278ZM13.4302 13.4521C13.1665 13.4521 13.0786 13.3716 13.0786 13.1079V12.6831C13.0786 12.4194 13.1665 12.3389 13.4302 12.3389H13.855C14.1187 12.3389 14.2065 12.4194 14.2065 12.6831V13.1079C14.2065 13.3716 14.1187 13.4521 13.855 13.4521H13.4302ZM15.8252 13.4521C15.5615 13.4521 15.4736 13.3716 15.4736 13.1079V12.6831C15.4736 12.4194 15.5615 12.3389 15.8252 12.3389H16.25C16.5137 12.3389 16.6016 12.4194 16.6016 12.6831V13.1079C16.6016 13.3716 16.5137 13.4521 16.25 13.4521H15.8252ZM8.63281 15.8105C8.37646 15.8105 8.28857 15.73 8.28857 15.4663V15.0415C8.28857 14.7778 8.37646 14.6973 8.63281 14.6973H9.06494C9.32861 14.6973 9.4165 14.7778 9.4165 15.0415V15.4663C9.4165 15.73 9.32861 15.8105 9.06494 15.8105H8.63281ZM11.0278 15.8105C10.7715 15.8105 10.6836 15.73 10.6836 15.4663V15.0415C10.6836 14.7778 10.7715 14.6973 11.0278 14.6973H11.46C11.7236 14.6973 11.8115 14.7778 11.8115 15.0415V15.4663C11.8115 15.73 11.7236 15.8105 11.46 15.8105H11.0278ZM13.4302 15.8105C13.1665 15.8105 13.0786 15.73 13.0786 15.4663V15.0415C13.0786 14.7778 13.1665 14.6973 13.4302 14.6973H13.855C14.1187 14.6973 14.2065 14.7778 14.2065 15.0415V15.4663C14.2065 15.73 14.1187 15.8105 13.855 15.8105H13.4302Z" fill="white"/>
</svg>
